<svg xmlns="http://www.w3.org/2000/svg" x="0px" y="0px"
width="96" height="96"
viewBox="0 0 192 192"
style=" fill:#000000;"><g transform=""><g fill="none" fill-rule="nonzero" stroke="none" stroke-width="1" stroke-linecap="butt" stroke-linejoin="miter" stroke-miterlimit="10" stroke-dasharray="" stroke-dashoffset="0" font-family="none" font-weight="none" font-size="none" text-anchor="none" style="mix-blend-mode: normal"><path d="M0,192v-192h192v192z" fill="none"></path><path d="M96,192c-53.01934,0 -96,-42.98066 -96,-96v0c0,-53.01934 42.98066,-96 96,-96v0c53.01934,0 96,42.98066 96,96v0c0,53.01934 -42.98066,96 -96,96z" fill="#5ab5e7"></path><path d="" fill="none"></path><path d="" fill="none"></path><path d="M96,192c-53.01934,0 -96,-42.98066 -96,-96v0c0,-53.01934 42.98066,-96 96,-96v0c53.01934,0 96,42.98066 96,96v0c0,53.01934 -42.98066,96 -96,96z" fill="none"></path><path d="M96,188.16c-50.89856,0 -92.16,-41.26144 -92.16,-92.16v0c0,-50.89856 41.26144,-92.16 92.16,-92.16v0c50.89856,0 92.16,41.26144 92.16,92.16v0c0,50.89856 -41.26144,92.16 -92.16,92.16z" fill="none"></path><path d="M96,192c-53.01934,0 -96,-42.98066 -96,-96v0c0,-53.01934 42.98066,-96 96,-96v0c53.01934,0 96,42.98066 96,96v0c0,53.01934 -42.98066,96 -96,96z" fill="none"></path><path d="M96,184.32c-48.77779,0 -88.32,-39.54221 -88.32,-88.32v0c0,-48.77779 39.54221,-88.32 88.32,-88.32v0c48.77779,0 88.32,39.54221 88.32,88.32v0c0,48.77779 -39.54221,88.32 -88.32,88.32z" fill="none"></path><path d="M96,192c-53.01934,0 -96,-42.98066 -96,-96v0c0,-53.01934 42.98066,-96 96,-96v0c53.01934,0 96,42.98066 96,96v0c0,53.01934 -42.98066,96 -96,96z" fill="none"></path><path d="M96,161.28c-36.05315,0 -65.28,-29.22685 -65.28,-65.28v0c0,-36.05315 29.22685,-65.28 65.28,-65.28v0c36.05315,0 65.28,29.22685 65.28,65.28v0c0,36.05315 -29.22685,65.28 -65.28,65.28z" fill="none"></path><path d="M96,192c-53.01934,0 -96,-42.98066 -96,-96v0c0,-53.01934 42.98066,-96 96,-96v0c53.01934,0 96,42.98066 96,96v0c0,53.01934 -42.98066,96 -96,96z" fill="none"></path><path d="M96,153.6c-31.8116,0 -57.6,-25.7884 -57.6,-57.6v0c0,-31.8116 25.7884,-57.6 57.6,-57.6v0c31.8116,0 57.6,25.7884 57.6,57.6v0c0,31.8116 -25.7884,57.6 -57.6,57.6z" fill="none"></path><path d="M96,192c-53.01934,0 -96,-42.98066 -96,-96v0c0,-53.01934 42.98066,-96 96,-96v0c53.01934,0 96,42.98066 96,96v0c0,53.01934 -42.98066,96 -96,96z" fill="none"></path><path d="M96,157.44c-33.93238,0 -61.44,-27.50762 -61.44,-61.44v0c0,-33.93238 27.50762,-61.44 61.44,-61.44v0c33.93238,0 61.44,27.50762 61.44,61.44v0c0,33.93238 -27.50762,61.44 -61.44,61.44z" fill="none"></path><path d="M96,192c-53.01934,0 -96,-42.98066 -96,-96v0c0,-53.01934 42.98066,-96 96,-96v0c53.01934,0 96,42.98066 96,96v0c0,53.01934 -42.98066,96 -96,96z" fill="none"></path><path d="M96,188.16c-50.89856,0 -92.16,-41.26144 -92.16,-92.16v0c0,-50.89856 41.26144,-92.16 92.16,-92.16v0c50.89856,0 92.16,41.26144 92.16,92.16v0c0,50.89856 -41.26144,92.16 -92.16,92.16z" fill="none"></path><path d="M96,192c-53.01934,0 -96,-42.98066 -96,-96v0c0,-53.01934 42.98066,-96 96,-96v0c53.01934,0 96,42.98066 96,96v0c0,53.01934 -42.98066,96 -96,96z" fill="none"></path><path d="M96,188.16c-50.89856,0 -92.16,-41.26144 -92.16,-92.16v0c0,-50.89856 41.26144,-92.16 92.16,-92.16v0c50.89856,0 92.16,41.26144 92.16,92.16v0c0,50.89856 -41.26144,92.16 -92.16,92.16z" fill="none"></path><path d="M96,192c-53.01934,0 -96,-42.98066 -96,-96v0c0,-53.01934 42.98066,-96 96,-96v0c53.01934,0 96,42.98066 96,96v0c0,53.01934 -42.98066,96 -96,96z" fill="none"></path><path d="M96,188.16c-50.89856,0 -92.16,-41.26144 -92.16,-92.16v0c0,-50.89856 41.26144,-92.16 92.16,-92.16v0c50.89856,0 92.16,41.26144 92.16,92.16v0c0,50.89856 -41.26144,92.16 -92.16,92.16z" fill="none"></path><path d="M96,192c-53.01934,0 -96,-42.98066 -96,-96v0c0,-53.01934 42.98066,-96 96,-96v0c53.01934,0 96,42.98066 96,96v0c0,53.01934 -42.98066,96 -96,96z" fill="none"></path><path d="M96,188.16c-50.89856,0 -92.16,-41.26144 -92.16,-92.16v0c0,-50.89856 41.26144,-92.16 92.16,-92.16v0c50.89856,0 92.16,41.26144 92.16,92.16v0c0,50.89856 -41.26144,92.16 -92.16,92.16z" fill="none"></path><path d="M96,192c-53.01934,0 -96,-42.98066 -96,-96v0c0,-53.01934 42.98066,-96 96,-96v0c53.01934,0 96,42.98066 96,96v0c0,53.01934 -42.98066,96 -96,96z" fill="none"></path><path d="M96,188.16c-50.89856,0 -92.16,-41.26144 -92.16,-92.16v0c0,-50.89856 41.26144,-92.16 92.16,-92.16v0c50.89856,0 92.16,41.26144 92.16,92.16v0c0,50.89856 -41.26144,92.16 -92.16,92.16z" fill="none"></path><path d="M96,192c-53.01934,0 -96,-42.98066 -96,-96v0c0,-53.01934 42.98066,-96 96,-96v0c53.01934,0 96,42.98066 96,96v0c0,53.01934 -42.98066,96 -96,96z" fill="none"></path><path d="M96,188.16c-50.89856,0 -92.16,-41.26144 -92.16,-92.16v0c0,-50.89856 41.26144,-92.16 92.16,-92.16v0c50.89856,0 92.16,41.26144 92.16,92.16v0c0,50.89856 -41.26144,92.16 -92.16,92.16z" fill="none"></path><g fill="#ffffff"><g id="surface1"><path d="M133.33333,86.66667c0,12.52083 -10.14583,22.66667 -22.66667,22.66667c-12.52083,0 -22.66667,-10.14583 -22.66667,-22.66667c0,-12.52083 10.14583,-22.66667 22.66667,-22.66667c12.52083,0 22.66667,10.14583 22.66667,22.66667z"></path><path d="M149.33333,109.05208c0,10.30209 -8.35417,18.66667 -18.66667,18.66667c-10.3125,0 -18.66667,-8.36458 -18.66667,-18.66667c0,-10.3125 8.35417,-18.66667 18.66667,-18.66667c10.3125,0 18.66667,8.35417 18.66667,18.66667z"></path><path d="M80,109.33333c0,10.3125 -8.35417,18.66667 -18.66667,18.66667c-10.3125,0 -18.66667,-8.35417 -18.66667,-18.66667c0,-10.3125 8.35417,-18.66667 18.66667,-18.66667c10.3125,0 18.66667,8.35417 18.66667,18.66667z"></path><path d="M96,89.33333c0,9.57292 -7.76042,17.33333 -17.33333,17.33333c-9.57292,0 -17.33333,-7.76042 -17.33333,-17.33333c0,-9.57292 7.76042,-17.33333 17.33333,-17.33333c9.57292,0 17.33333,7.76042 17.33333,17.33333z"></path><path d="M117.33333,103.71875c0,10.30209 -8.35417,18.66667 -18.66667,18.66667c-10.3125,0 -18.66667,-8.36458 -18.66667,-18.66667c0,-10.3125 8.35417,-18.66667 18.66667,-18.66667c10.3125,0 18.66667,8.35417 18.66667,18.66667z"></path><path d="M50.66667,117.33333c0,5.89583 4.77083,10.66667 10.66667,10.66667h66.66667c5.89583,0 10.66667,-4.77083 10.66667,-10.66667v-2.66667c0,-5.89583 -4.77083,-10.66667 -10.66667,-10.66667h-66.66667c-5.89583,0 -10.66667,4.77083 -10.66667,10.66667z"></path></g></g><path d="M0,192v-192h192v192z" fill="none"></path><path d="M3.84,188.16v-184.32h184.32v184.32z" fill="none"></path></g></g></svg>
